<svg xmlns="http://www.w3.org/2000/svg" viewBox="0 0 256 256" fill="none">
  <defs>
    <linearGradient id="faviconTop" x1="64" y1="103" x2="185" y2="194" gradientUnits="userSpaceOnUse">
      <stop stop-color="#FFE8DE"/>
      <stop offset="0.55" stop-color="#FFAA8C"/>
      <stop offset="1" stop-color="#FF7E5F"/>
    </linearGradient>
    <linearGradient id="faviconLeft" x1="44" y1="126" x2="125" y2="208" gradientUnits="userSpaceOnUse">
      <stop stop-color="#C95F53"/>
      <stop offset="1" stop-color="#713B40"/>
    </linearGradient>
    <linearGradient id="faviconRight" x1="130" y1="174" x2="211" y2="128" gradientUnits="userSpaceOnUse">
      <stop stop-color="#A94740"/>
      <stop offset="1" stop-color="#EF765C"/>
    </linearGradient>
  </defs>

  <rect x="12" y="12" width="232" height="232" rx="58" fill="#3D3436"/>
  <path d="M47 146L128 187V212L47 171V146Z" fill="url(#faviconLeft)"/>
  <path d="M128 187L209 146V171L128 212V187Z" fill="url(#faviconRight)"/>
  <path d="M47 146L128 105L209 146L128 187L47 146Z" fill="url(#faviconTop)"/>
  <path d="M47 146L128 187L209 146" stroke="#FFF9F5" stroke-opacity="0.55" stroke-width="3"/>

  <path d="M67 89L128 120L189 89V108L128 139L67 108V89Z" fill="#B95049" fill-opacity="0.82"/>
  <path d="M67 89L128 58L189 89L128 120L67 89Z" fill="#FFD5C3" stroke="#FFF9F5" stroke-width="3"/>
  <path d="M104 89L128 77L152 89L128 101L104 89Z" fill="#FF7E5F"/>
  <circle cx="128" cy="89" r="6" fill="#FFF9F5"/>
</svg>
