<svg xmlns="http://www.w3.org/2000/svg" viewBox="0 0 256 256" fill="none">
  <defs>
    <linearGradient id="boltGradient" x1="20%" y1="0%" x2="90%" y2="100%">
      <stop offset="0%" stop-color="#f3ba9b"/>
      <stop offset="50%" stop-color="#d87943"/>
      <stop offset="100%" stop-color="#9a5029"/>
    </linearGradient>
  </defs>

  <path
    transform="translate(5,6)"
    fill="#000000"
    fill-opacity="0.2"
    d="M213.85,125.46l-112,120a8,8,0,0,1-13.69-7l14.66-73.33L45.19,143.49a8,8,0,0,1-3-13l112-120a8,8,0,0,1,13.69,7L153.18,90.9l57.63,21.61a8,8,0,0,1,3,12.95Z"
  />

  <path
    fill="url(#boltGradient)"
    d="M213.85,125.46l-112,120a8,8,0,0,1-13.69-7l14.66-73.33L45.19,143.49a8,8,0,0,1-3-13l112-120a8,8,0,0,1,13.69,7L153.18,90.9l57.63,21.61a8,8,0,0,1,3,12.95Z"
  />

  <path
    fill="none"
    stroke="#fce3d3"
    stroke-opacity="0.55"
    stroke-width="3"
    stroke-linecap="round"
    d="M154.4,20.9 L142.4,94.3"
  />

  <ellipse cx="118" cy="150" rx="34" ry="10" fill="#5a2e13" fill-opacity="0.25" />
</svg>
